<svg width="18" height="8" viewBox="0 0 18 8" fill="none" xmlns="http://www.w3.org/2000/svg">
<path d="M0.5 3.18201C0.223858 3.18201 0 3.40586 0 3.68201C0 3.95815 0.223858 4.18201 0.5 4.18201V3.68201V3.18201ZM17.6725 4.03556C17.8678 3.8403 17.8678 3.52372 17.6725 3.32845L14.4905 0.146473C14.2953 -0.0487893 13.9787 -0.0487893 13.7834 0.146473C13.5881 0.341735 13.5881 0.658318 13.7834 0.85358L16.6118 3.68201L13.7834 6.51043C13.5881 6.7057 13.5881 7.02228 13.7834 7.21754C13.9787 7.4128 14.2953 7.4128 14.4905 7.21754L17.6725 4.03556ZM0.5 3.68201V4.18201H17.3189V3.68201V3.18201H0.5V3.68201Z" fill="#14141A"/>
</svg>
