<svg width="247" height="254" viewBox="0 0 247 254" fill="none" xmlns="http://www.w3.org/2000/svg">
<path d="M371 81.2848C255.477 62.1414 66.0561 141.75 0 237C29.861 58.1726 242.507 -1.82556 271.162 0.0420926C294.085 1.53621 347.272 54.8264 371 81.2848Z" fill="url(#paint0_linear_36_642)"/>
<path d="M307.313 181.894C229.972 140.042 73.0395 175.203 -2.13742e-05 250.567C69.8586 89.5525 238.063 77.5431 258.029 85.2306C274.001 91.3805 297.54 152.235 307.313 181.894Z" fill="url(#paint1_linear_36_642)"/>
<path d="M293.339 264.793C235.248 210.91 90.8028 205.205 10.5193 253.466C106.986 130.559 256.125 158.833 271.81 170.053C284.359 179.029 291.391 236.953 293.339 264.793Z" fill="url(#paint2_linear_36_642)"/>
<defs>
<linearGradient id="paint0_linear_36_642" x1="64.8719" y1="5.41702e-06" x2="235.62" y2="279.997" gradientUnits="userSpaceOnUse">
<stop offset="0.230769" stop-color="#EDEEF0"/>
<stop offset="1" stop-color="#D0D0D0"/>
</linearGradient>
<linearGradient id="paint1_linear_36_642" x1="110.657" y1="42.4194" x2="222.09" y2="312.646" gradientUnits="userSpaceOnUse">
<stop offset="0.230769" stop-color="#EDEEF0"/>
<stop offset="1" stop-color="#D0D0D0"/>
</linearGradient>
<linearGradient id="paint2_linear_36_642" x1="152.945" y1="99.2557" x2="186.939" y2="358.48" gradientUnits="userSpaceOnUse">
<stop offset="0.230769" stop-color="#EDEEF0"/>
<stop offset="1" stop-color="#D0D0D0"/>
</linearGradient>
</defs>
</svg>
