<svg width="24" height="24" viewBox="0 0 24 24" fill="none" xmlns="http://www.w3.org/2000/svg">
<g clip-path="url(#clip0_207_1151)">
<path d="M8 6.14239L8 4.4709C8 3.30611 8 2.72371 8.34942 2.36186C8.69883 2 9.26121 2 10.386 2L13.614 2C14.7388 2 15.3012 2 15.6506 2.36186C16 2.72371 16 3.30611 16 4.4709V6.14239" stroke="#DDDDDD" stroke-width="2"/>
<path d="M12 21.0002C10.6442 21.0002 9.70218 20.9992 8.97266 20.925C8.26177 20.8528 7.85572 20.7184 7.54492 20.5168C7.28461 20.348 7.05193 20.1398 6.85547 19.8997C6.62098 19.6129 6.44287 19.2241 6.29297 18.5256C6.13912 17.8086 6.03462 16.8716 5.88574 15.5237L4.88184 6.43091L19.1182 6.43091L18.1143 15.5237C17.9654 16.8716 17.8609 17.8086 17.707 18.5256C17.5571 19.2241 17.38 19.6129 17.1455 19.8997C16.949 20.14 16.7155 20.3479 16.4551 20.5168C16.1444 20.7184 15.7389 20.8527 15.0283 20.925C14.2987 20.9992 13.3561 21.0002 12 21.0002Z" stroke="#DDDDDD" stroke-width="2"/>
<path d="M3 6.12195H21" stroke="#DDDDDD" stroke-width="2" stroke-linecap="round"/>
</g>
<defs>
<clipPath id="clip0_207_1151">
<rect width="24" height="24" fill="white"/>
</clipPath>
</defs>
</svg>
