<svg width="74" height="32" viewBox="0 0 74 32" fill="none" xmlns="http://www.w3.org/2000/svg">
<path d="M58.098 31.9619C66.8805 31.9619 74.0002 24.807 74.0002 15.9809C74.0002 7.15491 66.8805 0 58.098 0C49.3155 0 42.1958 7.15491 42.1958 15.9809C42.1958 24.807 49.3155 31.9619 58.098 31.9619Z" fill="#FF5A00"/>
<path d="M30.3651 31.9619L43.1406 2.91542C41.1938 1.59607 38.9826 0.721832 36.663 0.354347C34.3433 -0.013137 31.9717 0.135075 29.7152 0.788535C27.4588 1.44199 25.3725 2.58479 23.6034 4.13636C21.8343 5.68793 20.4256 7.61049 19.4764 9.76851C18.5272 11.9265 18.0608 14.2675 18.11 16.6263C18.1591 18.9851 18.7227 21.3043 19.761 23.4205C20.7993 25.5367 22.2869 27.3983 24.1191 28.8741C25.9513 30.3499 28.0834 31.4039 30.3651 31.9619Z" fill="#2ED0FF"/>
<path d="M6.47158 31.9619L20.3107 0.304591C19.5863 0.206819 18.856 0.157689 18.1249 0.157535C14.414 0.147678 10.79 1.27664 7.7449 3.39111C4.69985 5.50558 2.38135 8.5031 1.10423 11.9766C-0.172885 15.4501 -0.346732 19.2314 0.606306 22.8068C1.55934 26.3822 3.59308 29.5786 6.43135 31.9619H6.47158Z" fill="#145FF5"/>
</svg>
